# MagicaVoxel @ Ephtracy

# group
o 

# material
mtllib Potion.mtl
usemtl palette

# normals
vn -1 0 0
vn 1 0 0
vn 0 0 1
vn 0 0 -1
vn 0 -1 0
vn 0 1 0

# texcoords
vt 0.615234 0.5
vt 0.623047 0.5
vt 0.955078 0.5

# verts
v -0.6 0.2 0.0999998
v -0.6 0.2 -0.4
v -0.6 0.8 0.0999998
v -0.6 0.8 -0.4
v -0.5 0.1 -1.49012e-07
v -0.5 0.1 -0.3
v -0.5 0.2 0.2
v -0.5 0.2 0.0999998
v -0.5 0.2 -1.49012e-07
v -0.5 0.2 -0.3
v -0.5 0.2 -0.4
v -0.5 0.2 -0.5
v -0.5 0.8 0.2
v -0.5 0.8 0.0999998
v -0.5 0.8 -1.49012e-07
v -0.5 0.8 -0.3
v -0.5 0.8 -0.4
v -0.5 0.8 -0.5
v -0.5 0.9 -1.49012e-07
v -0.5 0.9 -0.3
v -0.4 0 -1.49012e-07
v -0.4 0 -0.3
v -0.4 0.1 0.0999998
v -0.4 0.1 -1.49012e-07
v -0.4 0.1 -0.3
v -0.4 0.1 -0.4
v -0.4 0.2 0.3
v -0.4 0.2 0.2
v -0.4 0.2 0.0999998
v -0.4 0.2 -1.49012e-07
v -0.4 0.2 -0.3
v -0.4 0.2 -0.4
v -0.4 0.2 -0.5
v -0.4 0.2 -0.6
v -0.4 0.6 0.3
v -0.4 0.6 0.2
v -0.4 0.8 0.3
v -0.4 0.8 0.2
v -0.4 0.8 0.0999998
v -0.4 0.8 -1.49012e-07
v -0.4 0.8 -0.3
v -0.4 0.8 -0.4
v -0.4 0.8 -0.5
v -0.4 0.8 -0.6
v -0.4 0.9 0.0999998
v -0.4 0.9 -1.49012e-07
v -0.4 0.9 -0.3
v -0.4 0.9 -0.4
v -0.4 1 -1.49012e-07
v -0.4 1 -0.3
v -0.3 0 0.0999998
v -0.3 0 -1.49012e-07
v -0.3 0 -0.3
v -0.3 0 -0.4
v -0.3 0.1 0.2
v -0.3 0.1 0.0999998
v -0.3 0.1 -1.49012e-07
v -0.3 0.1 -0.3
v -0.3 0.1 -0.4
v -0.3 0.1 -0.5
v -0.3 0.2 0.2
v -0.3 0.2 0.0999998
v -0.3 0.2 -0.4
v -0.3 0.2 -0.5
v -0.3 0.8 0.2
v -0.3 0.8 0.0999998
v -0.3 0.8 -0.4
v -0.3 0.8 -0.5
v -0.3 0.9 0.2
v -0.3 0.9 0.0999998
v -0.3 0.9 -1.49012e-07
v -0.3 0.9 -0.3
v -0.3 0.9 -0.4
v -0.3 0.9 -0.5
v -0.3 1 0.0999998
v -0.3 1 -1.49012e-07
v -0.3 1 -0.1
v -0.3 1 -0.3
v -0.3 1 -0.4
v -0.3 1.3 -1.49012e-07
v -0.3 1.3 -0.1
v -0.3 1.4 -1.49012e-07
v -0.3 1.4 -0.3
v -0.3 1.5 -1.49012e-07
v -0.3 1.5 -0.3
v 5.96046e-08 0 0.0999998
v 5.96046e-08 0 -1.49012e-07
v 5.96046e-08 0 -0.3
v 5.96046e-08 0 -0.4
v 5.96046e-08 0.1 0.2
v 5.96046e-08 0.1 0.0999998
v 5.96046e-08 0.1 -1.49012e-07
v 5.96046e-08 0.1 -0.3
v 5.96046e-08 0.1 -0.4
v 5.96046e-08 0.1 -0.5
v 5.96046e-08 0.2 0.2
v 5.96046e-08 0.2 0.0999998
v 5.96046e-08 0.2 -0.4
v 5.96046e-08 0.2 -0.5
v 5.96046e-08 0.8 0.2
v 5.96046e-08 0.8 0.0999998
v 5.96046e-08 0.8 -0.4
v 5.96046e-08 0.8 -0.5
v 5.96046e-08 0.9 0.2
v 5.96046e-08 0.9 0.0999998
v 5.96046e-08 0.9 -1.49012e-07
v 5.96046e-08 0.9 -0.3
v 5.96046e-08 0.9 -0.4
v 5.96046e-08 0.9 -0.5
v 5.96046e-08 1 0.0999998
v 5.96046e-08 1 -1.49012e-07
v 5.96046e-08 1 -0.2
v 5.96046e-08 1 -0.3
v 5.96046e-08 1 -0.4
v 5.96046e-08 1.2 -0.1
v 5.96046e-08 1.2 -0.2
v 5.96046e-08 1.4 -1.49012e-07
v 5.96046e-08 1.4 -0.1
v 5.96046e-08 1.4 -0.3
v 5.96046e-08 1.5 -1.49012e-07
v 5.96046e-08 1.5 -0.3
v 0.1 0 -1.49012e-07
v 0.1 0 -0.1
v 0.1 0 -0.3
v 0.1 0.1 0.0999998
v 0.1 0.1 -1.49012e-07
v 0.1 0.1 -0.1
v 0.1 0.1 -0.3
v 0.1 0.1 -0.4
v 0.1 0.2 0.3
v 0.1 0.2 0.2
v 0.1 0.2 0.0999998
v 0.1 0.2 -1.49012e-07
v 0.1 0.2 -0.3
v 0.1 0.2 -0.4
v 0.1 0.2 -0.5
v 0.1 0.2 -0.6
v 0.1 0.8 0.3
v 0.1 0.8 0.2
v 0.1 0.8 0.0999998
v 0.1 0.8 -1.49012e-07
v 0.1 0.8 -0.3
v 0.1 0.8 -0.4
v 0.1 0.8 -0.5
v 0.1 0.8 -0.6
v 0.1 0.9 0.0999998
v 0.1 0.9 -1.49012e-07
v 0.1 0.9 -0.3
v 0.1 0.9 -0.4
v 0.1 1 -1.49012e-07
v 0.1 1 -0.3
v 0.2 0.1 -1.49012e-07
v 0.2 0.1 -0.1
v 0.2 0.1 -0.3
v 0.2 0.2 0.2
v 0.2 0.2 0.0999998
v 0.2 0.2 -1.49012e-07
v 0.2 0.2 -0.1
v 0.2 0.2 -0.3
v 0.2 0.2 -0.4
v 0.2 0.2 -0.5
v 0.2 0.8 0.2
v 0.2 0.8 0.0999998
v 0.2 0.8 -1.49012e-07
v 0.2 0.8 -0.3
v 0.2 0.8 -0.4
v 0.2 0.8 -0.5
v 0.2 0.9 -1.49012e-07
v 0.2 0.9 -0.3
v 0.3 0.2 0.0999998
v 0.3 0.2 -0.1
v 0.3 0.2 -0.4
v 0.3 0.3 -0.1
v 0.3 0.3 -0.2
v 0.3 0.5 -0.2
v 0.3 0.5 -0.3
v 0.3 0.8 0.0999998
v 0.3 0.8 -0.3
v 0.3 0.8 -0.4
v -0.4 0.2 0.3
v -0.4 0.6 0.3
v -0.4 0.8 0.3
v -0.2 0.5 0.3
v -0.2 0.6 0.3
v -0.0999999 0.2 0.3
v -0.0999999 0.5 0.3
v 0.1 0.2 0.3
v 0.1 0.8 0.3
v -0.5 0.2 0.2
v -0.5 0.8 0.2
v -0.4 0.2 0.2
v -0.4 0.6 0.2
v -0.4 0.8 0.2
v -0.3 0.1 0.2
v -0.3 0.2 0.2
v -0.3 0.8 0.2
v -0.3 0.9 0.2
v -0.0999999 0.1 0.2
v -0.0999999 0.2 0.2
v 5.96046e-08 0.1 0.2
v 5.96046e-08 0.2 0.2
v 5.96046e-08 0.8 0.2
v 5.96046e-08 0.9 0.2
v 0.1 0.2 0.2
v 0.1 0.8 0.2
v 0.2 0.2 0.2
v 0.2 0.8 0.2
v -0.6 0.2 0.0999998
v -0.6 0.8 0.0999998
v -0.5 0.2 0.0999998
v -0.5 0.8 0.0999998
v -0.4 0.1 0.0999998
v -0.4 0.2 0.0999998
v -0.4 0.8 0.0999998
v -0.4 0.9 0.0999998
v -0.3 0 0.0999998
v -0.3 0.1 0.0999998
v -0.3 0.2 0.0999998
v -0.3 0.8 0.0999998
v -0.3 0.9 0.0999998
v -0.3 1 0.0999998
v -0.0999999 0 0.0999998
v -0.0999999 0.1 0.0999998
v 5.96046e-08 0 0.0999998
v 5.96046e-08 0.1 0.0999998
v 5.96046e-08 0.2 0.0999998
v 5.96046e-08 0.8 0.0999998
v 5.96046e-08 0.9 0.0999998
v 5.96046e-08 1 0.0999998
v 0.1 0.1 0.0999998
v 0.1 0.2 0.0999998
v 0.1 0.8 0.0999998
v 0.1 0.9 0.0999998
v 0.2 0.2 0.0999998
v 0.2 0.8 0.0999998
v 0.3 0.2 0.0999998
v 0.3 0.8 0.0999998
v -0.5 0.1 -1.49012e-07
v -0.5 0.2 -1.49012e-07
v -0.5 0.8 -1.49012e-07
v -0.5 0.9 -1.49012e-07
v -0.4 0 -1.49012e-07
v -0.4 0.1 -1.49012e-07
v -0.4 0.2 -1.49012e-07
v -0.4 0.8 -1.49012e-07
v -0.4 0.9 -1.49012e-07
v -0.4 1 -1.49012e-07
v -0.3 0 -1.49012e-07
v -0.3 0.1 -1.49012e-07
v -0.3 0.9 -1.49012e-07
v -0.3 1 -1.49012e-07
v -0.3 1.3 -1.49012e-07
v -0.3 1.4 -1.49012e-07
v -0.3 1.5 -1.49012e-07
v -0.0999999 1.3 -1.49012e-07
v -0.0999999 1.4 -1.49012e-07
v 5.96046e-08 0 -1.49012e-07
v 5.96046e-08 0.1 -1.49012e-07
v 5.96046e-08 0.9 -1.49012e-07
v 5.96046e-08 1 -1.49012e-07
v 5.96046e-08 1.4 -1.49012e-07
v 5.96046e-08 1.5 -1.49012e-07
v 0.1 0 -1.49012e-07
v 0.1 0.1 -1.49012e-07
v 0.1 0.2 -1.49012e-07
v 0.1 0.8 -1.49012e-07
v 0.1 0.9 -1.49012e-07
v 0.1 1 -1.49012e-07
v 0.2 0.1 -1.49012e-07
v 0.2 0.2 -1.49012e-07
v 0.2 0.8 -1.49012e-07
v 0.2 0.9 -1.49012e-07
v -0.5 0.1 -0.3
v -0.5 0.2 -0.3
v -0.5 0.8 -0.3
v -0.5 0.9 -0.3
v -0.4 0 -0.3
v -0.4 0.1 -0.3
v -0.4 0.2 -0.3
v -0.4 0.8 -0.3
v -0.4 0.9 -0.3
v -0.4 1 -0.3
v -0.3 0 -0.3
v -0.3 0.1 -0.3
v -0.3 0.9 -0.3
v -0.3 1 -0.3
v -0.3 1.4 -0.3
v -0.3 1.5 -0.3
v 5.96046e-08 0 -0.3
v 5.96046e-08 0.1 -0.3
v 5.96046e-08 0.9 -0.3
v 5.96046e-08 1 -0.3
v 5.96046e-08 1.4 -0.3
v 5.96046e-08 1.5 -0.3
v 0.1 0 -0.3
v 0.1 0.1 -0.3
v 0.1 0.2 -0.3
v 0.1 0.8 -0.3
v 0.1 0.9 -0.3
v 0.1 1 -0.3
v 0.2 0.1 -0.3
v 0.2 0.2 -0.3
v 0.2 0.8 -0.3
v 0.2 0.9 -0.3
v -0.6 0.2 -0.4
v -0.6 0.8 -0.4
v -0.5 0.2 -0.4
v -0.5 0.8 -0.4
v -0.4 0.1 -0.4
v -0.4 0.2 -0.4
v -0.4 0.8 -0.4
v -0.4 0.9 -0.4
v -0.3 0 -0.4
v -0.3 0.1 -0.4
v -0.3 0.2 -0.4
v -0.3 0.8 -0.4
v -0.3 0.9 -0.4
v -0.3 1 -0.4
v 5.96046e-08 0 -0.4
v 5.96046e-08 0.1 -0.4
v 5.96046e-08 0.2 -0.4
v 5.96046e-08 0.8 -0.4
v 5.96046e-08 0.9 -0.4
v 5.96046e-08 1 -0.4
v 0.1 0.1 -0.4
v 0.1 0.2 -0.4
v 0.1 0.8 -0.4
v 0.1 0.9 -0.4
v 0.2 0.2 -0.4
v 0.2 0.8 -0.4
v 0.3 0.2 -0.4
v 0.3 0.8 -0.4
v -0.5 0.2 -0.5
v -0.5 0.8 -0.5
v -0.4 0.2 -0.5
v -0.4 0.8 -0.5
v -0.3 0.1 -0.5
v -0.3 0.2 -0.5
v -0.3 0.8 -0.5
v -0.3 0.9 -0.5
v 5.96046e-08 0.1 -0.5
v 5.96046e-08 0.2 -0.5
v 5.96046e-08 0.8 -0.5
v 5.96046e-08 0.9 -0.5
v 0.1 0.2 -0.5
v 0.1 0.8 -0.5
v 0.2 0.2 -0.5
v 0.2 0.8 -0.5
v -0.4 0.2 -0.6
v -0.4 0.8 -0.6
v 0.1 0.2 -0.6
v 0.1 0.8 -0.6
v -0.3 0 0.0999998
v -0.0999999 0 0.0999998
v 5.96046e-08 0 0.0999998
v -0.4 0 -1.49012e-07
v -0.3 0 -1.49012e-07
v 5.96046e-08 0 -1.49012e-07
v 0.1 0 -1.49012e-07
v -0.0999999 0 -0.1
v 0.1 0 -0.1
v -0.4 0 -0.3
v -0.3 0 -0.3
v 5.96046e-08 0 -0.3
v 0.1 0 -0.3
v -0.3 0 -0.4
v 5.96046e-08 0 -0.4
v -0.3 0.1 0.2
v -0.0999999 0.1 0.2
v 5.96046e-08 0.1 0.2
v -0.4 0.1 0.0999998
v -0.3 0.1 0.0999998
v -0.0999999 0.1 0.0999998
v 5.96046e-08 0.1 0.0999998
v 0.1 0.1 0.0999998
v -0.5 0.1 -1.49012e-07
v -0.4 0.1 -1.49012e-07
v -0.3 0.1 -1.49012e-07
v 5.96046e-08 0.1 -1.49012e-07
v 0.1 0.1 -1.49012e-07
v 0.2 0.1 -1.49012e-07
v 0.1 0.1 -0.1
v 0.2 0.1 -0.1
v -0.5 0.1 -0.3
v -0.4 0.1 -0.3
v -0.3 0.1 -0.3
v 5.96046e-08 0.1 -0.3
v 0.1 0.1 -0.3
v 0.2 0.1 -0.3
v -0.4 0.1 -0.4
v -0.3 0.1 -0.4
v 5.96046e-08 0.1 -0.4
v 0.1 0.1 -0.4
v -0.3 0.1 -0.5
v 5.96046e-08 0.1 -0.5
v -0.4 0.2 0.3
v -0.0999999 0.2 0.3
v 0.1 0.2 0.3
v -0.5 0.2 0.2
v -0.4 0.2 0.2
v -0.3 0.2 0.2
v -0.0999999 0.2 0.2
v 5.96046e-08 0.2 0.2
v 0.1 0.2 0.2
v 0.2 0.2 0.2
v -0.6 0.2 0.0999998
v -0.5 0.2 0.0999998
v -0.4 0.2 0.0999998
v -0.3 0.2 0.0999998
v 5.96046e-08 0.2 0.0999998
v 0.1 0.2 0.0999998
v 0.2 0.2 0.0999998
v 0.3 0.2 0.0999998
v -0.5 0.2 -1.49012e-07
v -0.4 0.2 -1.49012e-07
v 0.1 0.2 -1.49012e-07
v 0.2 0.2 -1.49012e-07
v 0.2 0.2 -0.1
v 0.3 0.2 -0.1
v -0.5 0.2 -0.3
v -0.4 0.2 -0.3
v 0.1 0.2 -0.3
v 0.2 0.2 -0.3
v -0.6 0.2 -0.4
v -0.5 0.2 -0.4
v -0.4 0.2 -0.4
v -0.3 0.2 -0.4
v 5.96046e-08 0.2 -0.4
v 0.1 0.2 -0.4
v 0.2 0.2 -0.4
v 0.3 0.2 -0.4
v -0.5 0.2 -0.5
v -0.4 0.2 -0.5
v -0.3 0.2 -0.5
v 5.96046e-08 0.2 -0.5
v 0.1 0.2 -0.5
v 0.2 0.2 -0.5
v -0.4 0.2 -0.6
v 0.1 0.2 -0.6
v -0.4 0.8 0.3
v 0.1 0.8 0.3
v -0.5 0.8 0.2
v -0.4 0.8 0.2
v -0.3 0.8 0.2
v 5.96046e-08 0.8 0.2
v 0.1 0.8 0.2
v 0.2 0.8 0.2
v -0.6 0.8 0.0999998
v -0.5 0.8 0.0999998
v -0.4 0.8 0.0999998
v -0.3 0.8 0.0999998
v 5.96046e-08 0.8 0.0999998
v 0.1 0.8 0.0999998
v 0.2 0.8 0.0999998
v 0.3 0.8 0.0999998
v -0.5 0.8 -1.49012e-07
v -0.4 0.8 -1.49012e-07
v 0.1 0.8 -1.49012e-07
v 0.2 0.8 -1.49012e-07
v -0.5 0.8 -0.3
v -0.4 0.8 -0.3
v 0.1 0.8 -0.3
v 0.2 0.8 -0.3
v 0.3 0.8 -0.3
v -0.6 0.8 -0.4
v -0.5 0.8 -0.4
v -0.4 0.8 -0.4
v -0.3 0.8 -0.4
v 5.96046e-08 0.8 -0.4
v 0.1 0.8 -0.4
v 0.2 0.8 -0.4
v 0.3 0.8 -0.4
v -0.5 0.8 -0.5
v -0.4 0.8 -0.5
v -0.3 0.8 -0.5
v 5.96046e-08 0.8 -0.5
v 0.1 0.8 -0.5
v 0.2 0.8 -0.5
v -0.4 0.8 -0.6
v 0.1 0.8 -0.6
v -0.3 0.9 0.2
v 5.96046e-08 0.9 0.2
v -0.4 0.9 0.0999998
v -0.3 0.9 0.0999998
v 5.96046e-08 0.9 0.0999998
v 0.1 0.9 0.0999998
v -0.5 0.9 -1.49012e-07
v -0.4 0.9 -1.49012e-07
v -0.3 0.9 -1.49012e-07
v 5.96046e-08 0.9 -1.49012e-07
v 0.1 0.9 -1.49012e-07
v 0.2 0.9 -1.49012e-07
v -0.5 0.9 -0.3
v -0.4 0.9 -0.3
v -0.3 0.9 -0.3
v 5.96046e-08 0.9 -0.3
v 0.1 0.9 -0.3
v 0.2 0.9 -0.3
v -0.4 0.9 -0.4
v -0.3 0.9 -0.4
v 5.96046e-08 0.9 -0.4
v 0.1 0.9 -0.4
v -0.3 0.9 -0.5
v 5.96046e-08 0.9 -0.5
v -0.3 1 0.0999998
v 5.96046e-08 1 0.0999998
v -0.4 1 -1.49012e-07
v -0.3 1 -1.49012e-07
v 5.96046e-08 1 -1.49012e-07
v 0.1 1 -1.49012e-07
v -0.3 1 -0.1
v 5.96046e-08 1 -0.2
v -0.4 1 -0.3
v -0.3 1 -0.3
v 5.96046e-08 1 -0.3
v 0.1 1 -0.3
v -0.3 1 -0.4
v 5.96046e-08 1 -0.4
v -0.3 1.5 -1.49012e-07
v 5.96046e-08 1.5 -1.49012e-07
v -0.3 1.5 -0.3
v 5.96046e-08 1.5 -0.3

# faces
f 3/1/1 2/1/1 1/1/1
f 4/1/1 2/1/1 3/1/1
f 9/1/1 6/1/1 5/1/1
f 10/1/1 6/1/1 9/1/1
f 13/1/1 8/1/1 7/1/1
f 14/1/1 8/1/1 13/1/1
f 17/1/1 12/1/1 11/1/1
f 18/1/1 12/1/1 17/1/1
f 19/1/1 16/1/1 15/1/1
f 20/1/1 16/1/1 19/1/1
f 24/1/1 22/1/1 21/1/1
f 25/1/1 22/1/1 24/1/1
f 29/1/1 24/1/1 23/1/1
f 30/1/1 24/1/1 29/1/1
f 31/1/1 26/1/1 25/1/1
f 32/1/1 26/1/1 31/1/1
f 35/1/1 28/1/1 27/1/1
f 36/1/1 28/1/1 35/1/1
f 37/2/1 36/2/1 35/2/1
f 38/2/1 36/2/1 37/2/1
f 43/1/1 34/1/1 33/1/1
f 44/1/1 34/1/1 43/1/1
f 45/2/1 40/2/1 39/2/1
f 46/2/1 40/2/1 45/2/1
f 47/1/1 42/1/1 41/1/1
f 48/1/1 42/1/1 47/1/1
f 49/1/1 47/1/1 46/1/1
f 50/1/1 47/1/1 49/1/1
f 56/1/1 52/1/1 51/1/1
f 57/1/1 52/1/1 56/1/1
f 58/1/1 54/1/1 53/1/1
f 59/1/1 54/1/1 58/1/1
f 61/1/1 56/1/1 55/1/1
f 62/1/1 56/1/1 61/1/1
f 63/1/1 60/1/1 59/1/1
f 64/1/1 60/1/1 63/1/1
f 69/2/1 66/2/1 65/2/1
f 70/2/1 66/2/1 69/2/1
f 73/1/1 68/1/1 67/1/1
f 74/1/1 68/1/1 73/1/1
f 75/2/1 71/2/1 70/2/1
f 76/2/1 71/2/1 75/2/1
f 78/1/1 73/1/1 72/1/1
f 79/1/1 73/1/1 78/1/1
f 80/2/1 77/2/1 76/2/1
f 81/1/1 78/1/1 77/1/1
f 81/2/1 77/2/1 80/2/1
f 82/1/1 81/1/1 80/1/1
f 83/1/1 78/1/1 81/1/1
f 83/1/1 81/1/1 82/1/1
f 84/3/1 83/3/1 82/3/1
f 85/3/1 83/3/1 84/3/1
f 86/2/2 87/2/2 91/2/2
f 91/2/2 87/2/2 92/2/2
f 88/1/2 89/1/2 93/1/2
f 93/1/2 89/1/2 94/1/2
f 90/2/2 91/2/2 96/2/2
f 96/2/2 91/2/2 97/2/2
f 94/1/2 95/1/2 98/1/2
f 98/1/2 95/1/2 99/1/2
f 100/2/2 101/2/2 104/2/2
f 104/2/2 101/2/2 105/2/2
f 102/1/2 103/1/2 108/1/2
f 108/1/2 103/1/2 109/1/2
f 105/2/2 106/2/2 110/2/2
f 110/2/2 106/2/2 111/2/2
f 107/1/2 108/1/2 113/1/2
f 113/1/2 108/1/2 114/1/2
f 111/2/2 112/2/2 115/2/2
f 112/1/2 113/1/2 116/1/2
f 115/2/2 112/2/2 116/2/2
f 111/2/2 115/2/2 117/2/2
f 115/1/2 116/1/2 118/1/2
f 117/2/2 115/2/2 118/2/2
f 116/1/2 113/1/2 119/1/2
f 118/1/2 116/1/2 119/1/2
f 117/3/2 118/3/2 120/3/2
f 118/3/2 119/3/2 120/3/2
f 120/3/2 119/3/2 121/3/2
f 122/2/2 123/2/2 126/2/2
f 123/1/2 124/1/2 127/1/2
f 126/2/2 123/2/2 127/2/2
f 127/1/2 124/1/2 128/1/2
f 125/2/2 126/2/2 132/2/2
f 132/2/2 126/2/2 133/2/2
f 128/1/2 129/1/2 134/1/2
f 134/1/2 129/1/2 135/1/2
f 130/2/2 131/2/2 138/2/2
f 138/2/2 131/2/2 139/2/2
f 136/1/2 137/1/2 144/1/2
f 144/1/2 137/1/2 145/1/2
f 140/2/2 141/2/2 146/2/2
f 146/2/2 141/2/2 147/2/2
f 142/1/2 143/1/2 148/1/2
f 148/1/2 143/1/2 149/1/2
f 147/2/2 148/2/2 150/2/2
f 150/2/2 148/2/2 151/2/2
f 152/2/2 153/2/2 157/2/2
f 153/1/2 154/1/2 158/1/2
f 157/2/2 153/2/2 158/2/2
f 158/1/2 154/1/2 159/1/2
f 155/2/2 156/2/2 162/2/2
f 162/2/2 156/2/2 163/2/2
f 160/1/2 161/1/2 166/1/2
f 166/1/2 161/1/2 167/1/2
f 164/2/2 165/2/2 168/2/2
f 168/2/2 165/2/2 169/2/2
f 170/2/2 171/2/2 173/2/2
f 171/1/2 172/1/2 173/1/2
f 173/1/2 172/1/2 174/1/2
f 173/2/2 174/2/2 175/2/2
f 174/1/2 172/1/2 175/1/2
f 175/1/2 172/1/2 176/1/2
f 170/2/2 173/2/2 177/2/2
f 173/2/2 175/2/2 177/2/2
f 175/2/2 176/2/2 177/2/2
f 176/1/2 172/1/2 178/1/2
f 177/2/2 176/2/2 178/2/2
f 178/1/2 172/1/2 179/1/2
f 183/1/3 181/1/3 180/1/3
f 184/2/3 182/2/3 181/2/3
f 184/1/3 181/1/3 183/1/3
f 185/1/3 183/1/3 180/1/3
f 186/2/3 184/2/3 183/2/3
f 186/1/3 183/1/3 185/1/3
f 187/2/3 186/2/3 185/2/3
f 188/2/3 182/2/3 184/2/3
f 188/2/3 186/2/3 187/2/3
f 188/2/3 184/2/3 186/2/3
f 191/1/3 190/1/3 189/1/3
f 192/1/3 190/1/3 191/1/3
f 193/1/3 190/1/3 192/1/3
f 198/1/3 195/1/3 194/1/3
f 199/1/3 195/1/3 198/1/3
f 200/2/3 199/2/3 198/2/3
f 201/2/3 199/2/3 200/2/3
f 202/2/3 197/2/3 196/2/3
f 203/2/3 197/2/3 202/2/3
f 206/2/3 205/2/3 204/2/3
f 207/2/3 205/2/3 206/2/3
f 210/1/3 209/1/3 208/1/3
f 211/1/3 209/1/3 210/1/3
f 217/1/3 213/1/3 212/1/3
f 218/1/3 213/1/3 217/1/3
f 219/2/3 215/2/3 214/2/3
f 220/2/3 215/2/3 219/2/3
f 222/1/3 217/1/3 216/1/3
f 223/1/3 217/1/3 222/1/3
f 224/2/3 223/2/3 222/2/3
f 225/2/3 223/2/3 224/2/3
f 228/2/3 221/2/3 220/2/3
f 229/2/3 221/2/3 228/2/3
f 230/2/3 226/2/3 225/2/3
f 231/2/3 226/2/3 230/2/3
f 232/2/3 228/2/3 227/2/3
f 233/2/3 228/2/3 232/2/3
f 236/2/3 235/2/3 234/2/3
f 237/2/3 235/2/3 236/2/3
f 243/1/3 239/1/3 238/1/3
f 244/1/3 239/1/3 243/1/3
f 245/1/3 241/1/3 240/1/3
f 246/1/3 241/1/3 245/1/3
f 248/1/3 243/1/3 242/1/3
f 249/1/3 243/1/3 248/1/3
f 250/1/3 247/1/3 246/1/3
f 251/1/3 247/1/3 250/1/3
f 255/1/3 253/1/3 252/1/3
f 255/2/3 252/2/3 251/2/3
f 256/3/3 254/3/3 253/3/3
f 256/1/3 253/1/3 255/1/3
f 260/2/3 255/2/3 251/2/3
f 260/2/3 256/2/3 255/2/3
f 261/3/3 254/3/3 256/3/3
f 261/2/3 256/2/3 260/2/3
f 262/3/3 254/3/3 261/3/3
f 263/2/3 258/2/3 257/2/3
f 264/2/3 258/2/3 263/2/3
f 267/2/3 260/2/3 259/2/3
f 268/2/3 260/2/3 267/2/3
f 269/2/3 265/2/3 264/2/3
f 270/2/3 265/2/3 269/2/3
f 271/2/3 267/2/3 266/2/3
f 272/2/3 267/2/3 271/2/3
f 273/1/4 274/1/4 278/1/4
f 278/1/4 274/1/4 279/1/4
f 275/1/4 276/1/4 280/1/4
f 280/1/4 276/1/4 281/1/4
f 277/1/4 278/1/4 283/1/4
f 283/1/4 278/1/4 284/1/4
f 281/1/4 282/1/4 285/1/4
f 285/1/4 282/1/4 286/1/4
f 286/1/4 287/1/4 292/1/4
f 287/3/4 288/3/4 293/3/4
f 292/1/4 287/1/4 293/1/4
f 293/3/4 288/3/4 294/3/4
f 289/1/4 290/1/4 295/1/4
f 295/1/4 290/1/4 296/1/4
f 291/2/4 292/2/4 299/2/4
f 299/2/4 292/2/4 300/2/4
f 296/1/4 297/1/4 301/1/4
f 301/1/4 297/1/4 302/1/4
f 298/2/4 299/2/4 303/2/4
f 303/2/4 299/2/4 304/2/4
f 305/1/4 306/1/4 307/1/4
f 307/1/4 306/1/4 308/1/4
f 309/1/4 310/1/4 314/1/4
f 314/1/4 310/1/4 315/1/4
f 311/1/4 312/1/4 316/1/4
f 316/1/4 312/1/4 317/1/4
f 313/1/4 314/1/4 319/1/4
f 319/1/4 314/1/4 320/1/4
f 317/1/4 318/1/4 323/1/4
f 323/1/4 318/1/4 324/1/4
f 320/1/4 321/1/4 325/1/4
f 325/1/4 321/1/4 326/1/4
f 322/1/4 323/1/4 327/1/4
f 327/1/4 323/1/4 328/1/4
f 329/1/4 330/1/4 331/1/4
f 331/1/4 330/1/4 332/1/4
f 333/1/4 334/1/4 335/1/4
f 335/1/4 334/1/4 336/1/4
f 337/1/4 338/1/4 341/1/4
f 341/1/4 338/1/4 342/1/4
f 339/1/4 340/1/4 343/1/4
f 343/1/4 340/1/4 344/1/4
f 345/1/4 346/1/4 347/1/4
f 347/1/4 346/1/4 348/1/4
f 349/1/4 350/1/4 351/1/4
f 351/1/4 350/1/4 352/1/4
f 357/1/5 354/1/5 353/1/5
f 358/2/5 355/2/5 354/2/5
f 360/1/5 357/1/5 356/1/5
f 360/2/5 359/2/5 358/2/5
f 360/2/5 358/2/5 354/2/5
f 360/1/5 354/1/5 357/1/5
f 361/2/5 359/2/5 360/2/5
f 362/1/5 360/1/5 356/1/5
f 362/1/5 361/1/5 360/1/5
f 363/1/5 361/1/5 362/1/5
f 364/1/5 361/1/5 363/1/5
f 365/1/5 361/1/5 364/1/5
f 366/1/5 364/1/5 363/1/5
f 367/1/5 364/1/5 366/1/5
f 372/1/5 369/1/5 368/1/5
f 373/2/5 370/2/5 369/2/5
f 373/1/5 369/1/5 372/1/5
f 374/2/5 370/2/5 373/2/5
f 377/1/5 372/1/5 371/1/5
f 378/1/5 372/1/5 377/1/5
f 379/2/5 375/2/5 374/2/5
f 380/2/5 375/2/5 379/2/5
f 382/2/5 381/2/5 380/2/5
f 383/2/5 381/2/5 382/2/5
f 384/1/5 377/1/5 376/1/5
f 385/1/5 377/1/5 384/1/5
f 388/1/5 383/1/5 382/1/5
f 389/1/5 383/1/5 388/1/5
f 390/1/5 386/1/5 385/1/5
f 391/1/5 386/1/5 390/1/5
f 392/1/5 388/1/5 387/1/5
f 393/1/5 388/1/5 392/1/5
f 394/1/5 392/1/5 391/1/5
f 395/1/5 392/1/5 394/1/5
f 400/1/5 397/1/5 396/1/5
f 401/1/5 397/1/5 400/1/5
f 402/2/5 398/2/5 397/2/5
f 402/1/5 397/1/5 401/1/5
f 403/2/5 398/2/5 402/2/5
f 404/2/5 398/2/5 403/2/5
f 407/1/5 401/1/5 400/1/5
f 407/1/5 400/1/5 399/1/5
f 408/1/5 401/1/5 407/1/5
f 409/1/5 401/1/5 408/1/5
f 410/2/5 404/2/5 403/2/5
f 410/2/5 405/2/5 404/2/5
f 411/2/5 405/2/5 410/2/5
f 412/2/5 405/2/5 411/2/5
f 414/1/5 408/1/5 407/1/5
f 414/1/5 407/1/5 406/1/5
f 415/1/5 408/1/5 414/1/5
f 416/2/5 413/2/5 412/2/5
f 416/2/5 412/2/5 411/2/5
f 417/2/5 413/2/5 416/2/5
f 418/2/5 413/2/5 417/2/5
f 419/2/5 413/2/5 418/2/5
f 420/1/5 414/1/5 406/1/5
f 423/1/5 419/1/5 418/1/5
f 424/1/5 421/1/5 420/1/5
f 424/1/5 420/1/5 406/1/5
f 425/1/5 421/1/5 424/1/5
f 426/1/5 421/1/5 425/1/5
f 429/1/5 423/1/5 422/1/5
f 430/1/5 419/1/5 423/1/5
f 430/1/5 423/1/5 429/1/5
f 431/1/5 419/1/5 430/1/5
f 432/1/5 427/1/5 426/1/5
f 432/1/5 426/1/5 425/1/5
f 433/1/5 427/1/5 432/1/5
f 434/1/5 427/1/5 433/1/5
f 435/1/5 429/1/5 428/1/5
f 435/1/5 430/1/5 429/1/5
f 436/1/5 430/1/5 435/1/5
f 437/1/5 430/1/5 436/1/5
f 438/1/5 434/1/5 433/1/5
f 438/1/5 436/1/5 435/1/5
f 438/1/5 435/1/5 434/1/5
f 439/1/5 436/1/5 438/1/5
f 440/2/6 441/2/6 443/2/6
f 443/2/6 441/2/6 444/2/6
f 444/2/6 441/2/6 445/2/6
f 445/2/6 441/2/6 446/2/6
f 442/1/6 443/1/6 449/1/6
f 443/1/6 444/1/6 449/1/6
f 449/1/6 444/1/6 450/1/6
f 450/1/6 444/1/6 451/1/6
f 445/2/6 446/2/6 452/2/6
f 446/2/6 447/2/6 452/2/6
f 452/2/6 447/2/6 453/2/6
f 453/2/6 447/2/6 454/2/6
f 449/1/6 450/1/6 456/1/6
f 448/1/6 449/1/6 456/1/6
f 456/1/6 450/1/6 457/1/6
f 454/2/6 455/2/6 458/2/6
f 453/2/6 454/2/6 458/2/6
f 458/2/6 455/2/6 459/2/6
f 448/1/6 456/1/6 460/1/6
f 459/2/6 455/2/6 463/2/6
f 463/2/6 455/2/6 464/2/6
f 460/1/6 461/1/6 465/1/6
f 448/1/6 460/1/6 465/1/6
f 465/1/6 461/1/6 466/1/6
f 466/1/6 461/1/6 467/1/6
f 463/1/6 464/1/6 470/1/6
f 462/1/6 463/1/6 470/1/6
f 470/1/6 464/1/6 471/1/6
f 471/1/6 464/1/6 472/1/6
f 467/1/6 468/1/6 473/1/6
f 466/1/6 467/1/6 473/1/6
f 473/1/6 468/1/6 474/1/6
f 474/1/6 468/1/6 475/1/6
f 470/1/6 471/1/6 476/1/6
f 469/1/6 470/1/6 476/1/6
f 476/1/6 471/1/6 477/1/6
f 477/1/6 471/1/6 478/1/6
f 474/1/6 475/1/6 479/1/6
f 476/1/6 477/1/6 479/1/6
f 475/1/6 476/1/6 479/1/6
f 479/1/6 477/1/6 480/1/6
f 481/2/6 482/2/6 484/2/6
f 484/2/6 482/2/6 485/2/6
f 483/2/6 484/2/6 488/2/6
f 488/2/6 484/2/6 489/2/6
f 485/2/6 486/2/6 490/2/6
f 490/2/6 486/2/6 491/2/6
f 487/1/6 488/1/6 493/1/6
f 493/1/6 488/1/6 494/1/6
f 491/2/6 492/2/6 497/2/6
f 497/2/6 492/2/6 498/2/6
f 494/1/6 495/1/6 499/1/6
f 499/1/6 495/1/6 500/1/6
f 496/1/6 497/1/6 501/1/6
f 501/1/6 497/1/6 502/1/6
f 500/1/6 501/1/6 503/1/6
f 503/1/6 501/1/6 504/1/6
f 505/2/6 506/2/6 508/2/6
f 508/2/6 506/2/6 509/2/6
f 507/1/6 508/1/6 511/1/6
f 509/2/6 510/2/6 512/2/6
f 507/1/6 511/1/6 513/1/6
f 513/1/6 511/1/6 514/1/6
f 512/2/6 510/2/6 515/2/6
f 515/2/6 510/2/6 516/2/6
f 514/1/6 515/1/6 517/1/6
f 517/1/6 515/1/6 518/1/6
f 519/3/6 520/3/6 521/3/6
f 521/3/6 520/3/6 522/3/6
